<svg xmlns="http://www.w3.org/2000/svg" xmlns:xlink="http://www.w3.org/1999/xlink" width="974" height="520"><defs><path id="a" d="M0 0h974v520H0z"/></defs><g fill="none" fill-rule="evenodd"><mask id="b" fill="#fff"><use xlink:href="#a"/></mask><use fill="#92BED8" xlink:href="#a"/><path fill="#D8C5BE" d="M201 19.86c0 72.354-81.36 163.205-125.094 221.354-28.868 38.381-70.566 38.381-96.227 0C-61.134 180.168-139 92.214-139 19.859-139-73.399-62.888-149 31-149c93.89 0 170 75.6 170 168.86z" style="mix-blend-mode:color-burn" mask="url(#b)"/><path fill="#FFB9A3" d="M314 106.86c0 72.354-81.36 163.205-125.094 221.354-28.868 38.381-70.566 38.381-96.227 0C51.866 267.168-26 179.214-26 106.859-26 13.601 50.112-62 144-62c93.89 0 170 75.6 170 168.86z" mask="url(#b)" opacity=".319" style="mix-blend-mode:color-burn" transform="rotate(180 144 147.5)"/><path fill="#DEC6BE" d="M732 18.86c0 72.354-81.36 163.205-125.094 221.354-28.868 38.381-70.566 38.381-96.227 0C469.866 179.168 392 91.214 392 18.859 392-74.399 468.112-150 562-150c93.89 0 170 75.6 170 168.86z" style="mix-blend-mode:color-burn" mask="url(#b)"/><path fill="#FFB9A3" d="M680 239.86c0 72.354-81.36 163.205-125.094 221.354-28.868 38.381-70.566 38.381-96.227 0C417.866 400.168 340 312.214 340 239.859 340 146.601 416.112 71 510 71c93.89 0 170 75.6 170 168.86z" mask="url(#b)" opacity=".316" style="mix-blend-mode:color-burn"/></g></svg>