<svg xmlns="http://www.w3.org/2000/svg" xmlns:xlink="http://www.w3.org/1999/xlink" width="974" height="520"><defs><path id="a" d="M0 0h974v520H0z"/></defs><g fill="none" fill-rule="evenodd"><mask id="b" fill="#fff"><use xlink:href="#a"/></mask><use fill="#FFB342" xlink:href="#a"/><path fill="#FFBD5C" d="M556.533 472c-49.036-.469-89.163-16.424-124.126-45.543-37.1-30.904-63.87-69.47-82.025-114.048-6.202-15.24-9.406-31.211-8.09-47.708 1.537-19.189 9.158-36.095 20.861-51.218 14.79-19.145 33.369-34.019 53.747-46.655 45.95-28.505 95.22-49.36 147.723-62.377 23.772-5.894 47.939-9.346 72.5-8.249 18.857.849 37.143 4.432 53.644 14.26 19.867 11.817 31.599 29.704 36.397 51.89 2.532 11.672 3.966 23.722 4.505 35.672 2.884 64.438-13.18 124.374-44.646 180.3-15.784 28.067-35.855 52.651-62.583 71.24-15.58 10.839-32.651 18.208-51.435 21.208-6.451 1.022-13.064.995-16.472 1.228z" mask="url(#b)" opacity=".289" style="mix-blend-mode:color-burn" transform="rotate(180 537 284)"/><path fill="#FFD28F" d="M436.942 612c-62.615-.596-113.855-20.88-158.5-57.897-47.372-39.289-81.557-88.317-104.738-144.988-7.92-19.374-12.012-39.678-10.33-60.65 1.96-24.394 11.693-45.886 26.637-65.112 18.886-24.339 42.61-43.247 68.63-59.311 58.674-36.238 121.589-62.75 188.631-79.299 30.355-7.493 61.215-11.88 92.579-10.486 24.077 1.079 47.428 5.634 68.497 18.128 25.369 15.023 40.35 37.762 46.477 65.967 3.233 14.838 5.064 30.157 5.753 45.348 3.682 81.92-16.83 158.115-57.01 229.212-20.156 35.68-45.784 66.934-79.913 90.567-19.895 13.778-41.694 23.146-65.68 26.96-8.237 1.3-16.68 1.265-21.033 1.561z" mask="url(#b)" opacity=".289" style="mix-blend-mode:color-burn"/><path fill="#B56C00" d="M131.942 234c-62.615-.599-113.855-20.967-158.5-58.14-47.372-39.452-81.557-88.686-104.738-145.594-7.92-19.455-12.012-39.843-10.33-60.904 1.96-24.495 11.693-46.078 26.637-65.384 18.886-24.44 42.61-43.428 68.63-59.56 58.674-36.388 121.589-63.013 188.631-79.63 30.355-7.524 61.215-11.93 92.579-10.53 24.077 1.083 47.428 5.657 68.497 18.204 25.369 15.086 40.35 37.92 46.477 66.243 3.233 14.9 5.064 30.283 5.753 45.538 3.682 82.262-16.83 158.776-57.01 230.17-20.156 35.83-45.784 67.215-79.913 90.946-19.895 13.836-41.694 23.244-65.68 27.074-8.237 1.304-16.68 1.27-21.033 1.567z" mask="url(#b)" opacity=".289" style="mix-blend-mode:color-burn" transform="matrix(-1 0 0 1 214 0)"/><path fill="#FF9F0F" d="M108.18 195c-44.384-.424-80.704-14.851-112.35-41.182-33.58-27.946-57.81-62.82-74.243-103.13-5.614-13.78-8.514-28.222-7.322-43.14 1.39-17.35 8.289-32.639 18.881-46.314 13.387-17.312 30.203-30.76 48.648-42.187 41.59-25.776 86.186-44.635 133.708-56.405 21.517-5.33 43.391-8.45 65.623-7.46 17.067.768 33.619 4.008 48.554 12.895 17.982 10.686 28.6 26.86 32.944 46.923 2.291 10.553 3.59 21.45 4.078 32.255 2.61 58.269-11.93 112.467-40.41 163.038-14.288 25.38-32.454 47.61-56.646 64.42-14.102 9.8-29.554 16.464-46.556 19.177-5.839.924-11.824.9-14.91 1.11z" mask="url(#b)" opacity=".289" style="mix-blend-mode:color-burn" transform="rotate(30 90.5 25)"/></g></svg>