<svg xmlns="http://www.w3.org/2000/svg" xmlns:xlink="http://www.w3.org/1999/xlink" width="974" height="520"><defs><filter id="b" width="102.7%" height="105%" x="-1.3%" y="-2.1%" filterUnits="objectBoundingBox"><feOffset dy="2" in="SourceAlpha" result="shadowOffsetOuter1"/><feGaussianBlur in="shadowOffsetOuter1" result="shadowBlurOuter1" stdDeviation="4"/><feColorMatrix in="shadowBlurOuter1" values="0 0 0 0 0 0 0 0 0 0 0 0 0 0 0 0 0 0 0.04 0"/></filter><path id="a" d="M0 0h974v520H0z"/></defs><g fill="none" fill-rule="evenodd"><mask id="c" fill="#fff"><use xlink:href="#a"/></mask><use fill="#000" filter="url(#b)" xlink:href="#a"/><use fill="#FFBA94" xlink:href="#a"/><path fill="#BB9D8C" d="M-312.378-154.028c-64.652 0-117.064 52.41-117.064 117.064v403.871c0 64.655 52.412 117.065 117.064 117.065h117.065c64.653 0 117.064-52.41 117.064-117.065V197.164H91.494c64.655 0 117.064-52.411 117.064-117.064V-36.964c0-64.653-52.41-117.064-117.064-117.064h-403.872z" mask="url(#c)" opacity=".442" style="mix-blend-mode:color-burn" transform="rotate(40 -110.442 164.972)"/><path fill="#BB9D8C" d="M-166.303-83C-208.66-83-243-48.661-243-6.303v264.606c0 42.36 34.339 76.697 76.697 76.697h76.697c42.36 0 76.698-34.337 76.698-76.697V147.092h111.21c42.36 0 76.698-34.339 76.698-76.698V-6.303C175-48.66 140.663-83 98.303-83h-264.606z" mask="url(#c)" opacity=".568" style="mix-blend-mode:color-burn" transform="rotate(40 -34 126)"/><path fill="#BB9D8C" d="M868.166 450.188c45.463-38.136 51.393-105.896 13.245-151.345L643.106 14.93c-38.15-45.45-105.93-51.378-151.393-13.241l-82.32 69.052C363.93 108.88 358 176.637 396.15 222.088l100.157 119.325-119.363 100.126c-45.465 38.137-51.394 105.896-13.245 151.345l69.074 82.293c38.148 45.45 105.928 51.379 151.393 13.241l284-238.23z" mask="url(#c)" opacity=".386" style="mix-blend-mode:color-burn"/><path fill="#BB9D8C" d="M899.166 355.188c45.463-38.136 51.393-105.896 13.245-151.345L674.106-80.07c-38.15-45.45-105.93-51.378-151.393-13.241l-82.32 69.052C394.93 13.88 389 81.637 427.15 127.088l100.157 119.325-119.363 100.126c-45.465 38.137-51.394 105.896-13.245 151.345l69.074 82.293c38.148 45.45 105.928 51.379 151.393 13.241l284-238.23z" mask="url(#c)" opacity=".386" style="mix-blend-mode:color-burn"/></g></svg>